<svg width="36" height="36" viewBox="0 0 36 36" fill="none" xmlns="http://www.w3.org/2000/svg">
<path d="M20.0858 2.58055C22.0242 1.63303 24.3647 2.39352 25.376 4.29942L25.5477 4.62307C26.1259 5.71295 27.1748 6.47499 28.39 6.68816L28.7509 6.75146C30.876 7.12423 32.3225 9.11522 32.0204 11.2515L31.9691 11.6143C31.7963 12.8359 32.1969 14.0689 33.0547 14.9557L33.3095 15.219C34.8096 16.7697 34.8096 19.2307 33.3095 20.7814L33.0547 21.0447C32.1969 21.9314 31.7963 23.1644 31.9691 24.3861L32.0204 24.7488C32.3225 26.8851 30.876 28.8761 28.7509 29.2489L28.39 29.3122C27.1748 29.5254 26.1259 30.2874 25.5477 31.3773L25.376 31.7009C24.3647 33.6068 22.0242 34.3673 20.0858 33.4198L19.7567 33.2589C18.6482 32.717 17.3518 32.717 16.2433 33.2589L15.9142 33.4198C13.9758 34.3673 11.6353 33.6068 10.6241 31.7009L10.4523 31.3773C9.87408 30.2874 8.82522 29.5254 7.60999 29.3122L7.24911 29.2489C5.12401 28.8761 3.67748 26.8851 3.97964 24.7488L4.03095 24.3861C4.20375 23.1644 3.80312 21.9314 2.94527 21.0447L2.69053 20.7813C1.19039 19.2307 1.19039 16.7697 2.69053 15.219L2.94528 14.9557C3.80312 14.0689 4.20375 12.8359 4.03095 11.6143L3.97964 11.2515C3.67748 9.11521 5.12401 7.12423 7.24911 6.75146L7.60999 6.68816C8.82522 6.47499 9.87408 5.71295 10.4523 4.62307L10.6241 4.29942C11.6353 2.39351 13.9758 1.63303 15.9142 2.58056L16.2433 2.74146C17.3518 3.2833 18.6482 3.2833 19.7567 2.74146L20.0858 2.58055Z" fill="#702302"/>
<g clip-path="url(#clip0_440_149)">
<path d="M18 11.4406C20.1375 11.4406 20.3906 11.45 21.2313 11.4875C22.0125 11.5219 22.4344 11.6531 22.7156 11.7625C23.0875 11.9063 23.3563 12.0813 23.6344 12.3594C23.9156 12.6406 24.0875 12.9063 24.2313 13.2781C24.3406 13.5594 24.4719 13.9844 24.5063 14.7625C24.5438 15.6062 24.5531 15.8594 24.5531 17.9938C24.5531 20.1313 24.5438 20.3844 24.5063 21.225C24.4719 22.0063 24.3406 22.4281 24.2313 22.7094C24.0875 23.0813 23.9125 23.35 23.6344 23.6281C23.3531 23.9094 23.0875 24.0813 22.7156 24.225C22.4344 24.3344 22.0094 24.4656 21.2313 24.5C20.3875 24.5375 20.1344 24.5469 18 24.5469C15.8625 24.5469 15.6094 24.5375 14.7688 24.5C13.9875 24.4656 13.5656 24.3344 13.2844 24.225C12.9125 24.0813 12.6438 23.9063 12.3656 23.6281C12.0844 23.3469 11.9125 23.0813 11.7688 22.7094C11.6594 22.4281 11.5281 22.0031 11.4938 21.225C11.4563 20.3813 11.4469 20.1281 11.4469 17.9938C11.4469 15.8563 11.4563 15.6031 11.4938 14.7625C11.5281 13.9812 11.6594 13.5594 11.7688 13.2781C11.9125 12.9063 12.0875 12.6375 12.3656 12.3594C12.6469 12.0781 12.9125 11.9063 13.2844 11.7625C13.5656 11.6531 13.9906 11.5219 14.7688 11.4875C15.6094 11.45 15.8625 11.4406 18 11.4406ZM18 10C15.8281 10 15.5563 10.0094 14.7031 10.0469C13.8531 10.0844 13.2688 10.2219 12.7625 10.4187C12.2344 10.625 11.7875 10.8969 11.3438 11.3438C10.8969 11.7875 10.625 12.2344 10.4188 12.7594C10.2219 13.2688 10.0844 13.85 10.0469 14.7C10.0094 15.5563 10 15.8281 10 18C10 20.1719 10.0094 20.4438 10.0469 21.2969C10.0844 22.1469 10.2219 22.7313 10.4188 23.2375C10.625 23.7656 10.8969 24.2125 11.3438 24.6562C11.7875 25.1 12.2344 25.375 12.7594 25.5781C13.2688 25.775 13.85 25.9125 14.7 25.95C15.5531 25.9875 15.825 25.9969 17.9969 25.9969C20.1688 25.9969 20.4406 25.9875 21.2938 25.95C22.1438 25.9125 22.7281 25.775 23.2344 25.5781C23.7594 25.375 24.2063 25.1 24.65 24.6562C25.0938 24.2125 25.3688 23.7656 25.5719 23.2406C25.7688 22.7313 25.9063 22.15 25.9438 21.3C25.9813 20.4469 25.9906 20.175 25.9906 18.0031C25.9906 15.8313 25.9813 15.5594 25.9438 14.7063C25.9063 13.8563 25.7688 13.2719 25.5719 12.7656C25.375 12.2344 25.1031 11.7875 24.6563 11.3438C24.2125 10.9 23.7656 10.625 23.2406 10.4219C22.7313 10.225 22.15 10.0875 21.3 10.05C20.4438 10.0094 20.1719 10 18 10Z" fill="white"/>
<path d="M18 13.8906C15.7313 13.8906 13.8906 15.7313 13.8906 18C13.8906 20.2688 15.7313 22.1094 18 22.1094C20.2688 22.1094 22.1094 20.2688 22.1094 18C22.1094 15.7313 20.2688 13.8906 18 13.8906ZM18 20.6656C16.5281 20.6656 15.3344 19.4719 15.3344 18C15.3344 16.5281 16.5281 15.3344 18 15.3344C19.4719 15.3344 20.6656 16.5281 20.6656 18C20.6656 19.4719 19.4719 20.6656 18 20.6656Z" fill="white"/>
<path d="M23.2312 13.7282C23.2312 14.2594 22.8 14.6876 22.2719 14.6876C21.7406 14.6876 21.3125 14.2563 21.3125 13.7282C21.3125 13.1969 21.7438 12.7688 22.2719 12.7688C22.8 12.7688 23.2312 13.2 23.2312 13.7282Z" fill="white"/>
</g>
<defs>
<clipPath id="clip0_440_149">
<rect width="16" height="16" fill="white" transform="translate(10 10)"/>
</clipPath>
</defs>
</svg>
