<svg width="36" height="36" viewBox="0 0 36 36" fill="none" xmlns="http://www.w3.org/2000/svg">
<path d="M20.0858 2.58055C22.0242 1.63303 24.3647 2.39352 25.376 4.29942L25.5477 4.62307C26.1259 5.71295 27.1748 6.47499 28.39 6.68816L28.7509 6.75146C30.876 7.12423 32.3225 9.11522 32.0204 11.2515L31.9691 11.6143C31.7963 12.8359 32.1969 14.0689 33.0547 14.9557L33.3095 15.219C34.8096 16.7697 34.8096 19.2307 33.3095 20.7814L33.0547 21.0447C32.1969 21.9314 31.7963 23.1644 31.9691 24.3861L32.0204 24.7488C32.3225 26.8851 30.876 28.8761 28.7509 29.2489L28.39 29.3122C27.1748 29.5254 26.1259 30.2874 25.5477 31.3773L25.376 31.7009C24.3647 33.6068 22.0242 34.3673 20.0858 33.4198L19.7567 33.2589C18.6482 32.717 17.3518 32.717 16.2433 33.2589L15.9142 33.4198C13.9758 34.3673 11.6353 33.6068 10.6241 31.7009L10.4523 31.3773C9.87408 30.2874 8.82522 29.5254 7.60999 29.3122L7.24911 29.2489C5.12401 28.8761 3.67748 26.8851 3.97964 24.7488L4.03095 24.3861C4.20375 23.1644 3.80312 21.9314 2.94527 21.0447L2.69053 20.7813C1.19039 19.2307 1.19039 16.7697 2.69053 15.219L2.94528 14.9557C3.80312 14.0689 4.20375 12.8359 4.03095 11.6143L3.97964 11.2515C3.67748 9.11521 5.12401 7.12423 7.24911 6.75146L7.60999 6.68816C8.82522 6.47499 9.87408 5.71295 10.4523 4.62307L10.6241 4.29942C11.6353 2.39351 13.9758 1.63303 15.9142 2.58056L16.2433 2.74146C17.3518 3.2833 18.6482 3.2833 19.7567 2.74146L20.0858 2.58055Z" fill="#702302"/>
<g clip-path="url(#clip0_440_323)">
<path d="M21.1334 18.4449L21.5824 16.0001H18.9693V15.1354C18.9693 13.8436 19.4762 13.3466 20.7878 13.3466C21.1952 13.3466 21.5232 13.3565 21.712 13.3764V11.1604C21.3542 11.0609 20.4797 10.9617 19.9728 10.9617C17.2995 10.9617 16.0672 12.2238 16.0672 14.9466V16.0001H14.4176V18.4449H16.0672V23.7646C16.6861 23.9182 17.3334 24.0001 17.9997 24.0001C18.3277 24.0001 18.6512 23.9799 18.969 23.9415V18.4449H21.1331H21.1334Z" fill="white"/>
</g>
<defs>
<clipPath id="clip0_440_323">
<rect width="16" height="16" fill="white" transform="translate(10 8)"/>
</clipPath>
</defs>
</svg>
