<svg width="80" height="80" viewBox="0 0 80 80" fill="none" xmlns="http://www.w3.org/2000/svg">
<path d="M40 0L45.3774 4.32298L51.7902 1.77709L55.6545 7.49304L62.5328 6.95045L64.5406 13.5515L71.2733 15.0604L71.2462 21.96L77.235 25.3864L75.1754 31.9714L79.8882 37.0108L75.9791 42.6963L78.9971 48.9008L73.5859 53.1815L74.641 60L68.2085 62.4955L67.2069 69.3221L60.3246 69.8107L57.3554 76.0388L50.6348 74.4771L45.9617 79.5532L40 76.08L34.0383 79.5532L29.3652 74.4771L22.6446 76.0388L19.6754 69.8107L12.7931 69.3221L11.7915 62.4955L5.35898 60L6.41407 53.1815L1.00288 48.9008L4.02089 42.6963L0.111847 37.0108L4.8246 31.9714L2.76505 25.3864L8.7538 21.96L8.72674 15.0604L15.4594 13.5515L17.4672 6.95045L24.3455 7.49304L28.2098 1.77709L34.6226 4.32298L40 0Z" fill="#F97316"/>
<g clip-path="url(#clip0_684_189)">
<path d="M40 23.6016C45.3438 23.6016 45.9766 23.625 48.0781 23.7187C50.0313 23.8047 51.0859 24.1328 51.7891 24.4063C52.7188 24.7656 53.3906 25.2031 54.0859 25.8984C54.7891 26.6016 55.2188 27.2656 55.5781 28.1953C55.8516 28.8984 56.1797 29.9609 56.2656 31.9062C56.3594 34.0156 56.3828 34.6484 56.3828 39.9844C56.3828 45.3281 56.3594 45.9609 56.2656 48.0625C56.1797 50.0156 55.8516 51.0703 55.5781 51.7734C55.2188 52.7031 54.7813 53.375 54.0859 54.0703C53.3828 54.7734 52.7188 55.2031 51.7891 55.5625C51.0859 55.8359 50.0234 56.1641 48.0781 56.25C45.9688 56.3438 45.3359 56.3672 40 56.3672C34.6563 56.3672 34.0234 56.3438 31.9219 56.25C29.9688 56.1641 28.9141 55.8359 28.2109 55.5625C27.2813 55.2031 26.6094 54.7656 25.9141 54.0703C25.2109 53.3672 24.7813 52.7031 24.4219 51.7734C24.1484 51.0703 23.8203 50.0078 23.7344 48.0625C23.6406 45.9531 23.6172 45.3203 23.6172 39.9844C23.6172 34.6406 23.6406 34.0078 23.7344 31.9062C23.8203 29.9531 24.1484 28.8984 24.4219 28.1953C24.7813 27.2656 25.2188 26.5938 25.9141 25.8984C26.6172 25.1953 27.2813 24.7656 28.2109 24.4063C28.9141 24.1328 29.9766 23.8047 31.9219 23.7187C34.0234 23.625 34.6563 23.6016 40 23.6016ZM40 20C34.5703 20 33.8906 20.0234 31.7578 20.1172C29.6328 20.2109 28.1719 20.5547 26.9063 21.0469C25.5859 21.5625 24.4688 22.2422 23.3594 23.3594C22.2422 24.4688 21.5625 25.5859 21.0469 26.8984C20.5547 28.1719 20.2109 29.625 20.1172 31.75C20.0234 33.8906 20 34.5703 20 40C20 45.4297 20.0234 46.1094 20.1172 48.2422C20.2109 50.3672 20.5547 51.8281 21.0469 53.0938C21.5625 54.4141 22.2422 55.5312 23.3594 56.6406C24.4688 57.75 25.5859 58.4375 26.8984 58.9453C28.1719 59.4375 29.625 59.7812 31.75 59.875C33.8828 59.9688 34.5625 59.9922 39.9922 59.9922C45.4219 59.9922 46.1016 59.9688 48.2344 59.875C50.3594 59.7812 51.8203 59.4375 53.0859 58.9453C54.3984 58.4375 55.5156 57.75 56.625 56.6406C57.7344 55.5312 58.4219 54.4141 58.9297 53.1016C59.4219 51.8281 59.7656 50.375 59.8594 48.25C59.9531 46.1172 59.9766 45.4375 59.9766 40.0078C59.9766 34.5781 59.9531 33.8984 59.8594 31.7656C59.7656 29.6406 59.4219 28.1797 58.9297 26.9141C58.4375 25.5859 57.7578 24.4688 56.6406 23.3594C55.5313 22.25 54.4141 21.5625 53.1016 21.0547C51.8281 20.5625 50.375 20.2188 48.25 20.125C46.1094 20.0234 45.4297 20 40 20Z" fill="white"/>
<path d="M40 29.7266C34.3281 29.7266 29.7266 34.3281 29.7266 40C29.7266 45.6719 34.3281 50.2734 40 50.2734C45.6719 50.2734 50.2734 45.6719 50.2734 40C50.2734 34.3281 45.6719 29.7266 40 29.7266ZM40 46.6641C36.3203 46.6641 33.3359 43.6797 33.3359 40C33.3359 36.3203 36.3203 33.3359 40 33.3359C43.6797 33.3359 46.6641 36.3203 46.6641 40C46.6641 43.6797 43.6797 46.6641 40 46.6641Z" fill="white"/>
<path d="M53.0781 29.3203C53.0781 30.6484 52 31.7188 50.6797 31.7188C49.3516 31.7188 48.2812 30.6406 48.2812 29.3203C48.2812 27.9922 49.3594 26.9219 50.6797 26.9219C52 26.9219 53.0781 28 53.0781 29.3203Z" fill="white"/>
</g>
<defs>
<clipPath id="clip0_684_189">
<rect width="40" height="40" fill="white" transform="translate(20 20)"/>
</clipPath>
</defs>
</svg>
