<svg width="80" height="80" viewBox="0 0 80 80" fill="none" xmlns="http://www.w3.org/2000/svg">
<path d="M40 0L45.3774 4.32298L51.7902 1.77709L55.6545 7.49304L62.5328 6.95045L64.5406 13.5515L71.2733 15.0604L71.2462 21.96L77.235 25.3864L75.1754 31.9714L79.8882 37.0108L75.9791 42.6963L78.9971 48.9008L73.5859 53.1815L74.641 60L68.2085 62.4955L67.2069 69.3221L60.3246 69.8107L57.3554 76.0388L50.6348 74.4771L45.9617 79.5532L40 76.08L34.0383 79.5532L29.3652 74.4771L22.6446 76.0388L19.6754 69.8107L12.7931 69.3221L11.7915 62.4955L5.35898 60L6.41407 53.1815L1.00288 48.9008L4.02089 42.6963L0.111847 37.0108L4.8246 31.9714L2.76505 25.3864L8.7538 21.96L8.72674 15.0604L15.4594 13.5515L17.4672 6.95045L24.3455 7.49304L28.2098 1.77709L34.6226 4.32298L40 0Z" fill="#F97316"/>
<path d="M48.4853 31.5147L31.9861 48.0139M48.4853 31.5147L48.4853 40.9428M48.4853 31.5147L39.0572 31.5147" stroke="white" stroke-width="1.66667" stroke-linecap="round" stroke-linejoin="round"/>
</svg>
