<svg width="36" height="36" viewBox="0 0 36 36" fill="none" xmlns="http://www.w3.org/2000/svg">
<path d="M20.0858 2.58049C22.0241 1.63297 24.3647 2.39346 25.3759 4.29936L25.5476 4.62301C26.1259 5.71289 27.1747 6.47493 28.39 6.6881L28.7508 6.7514C30.876 7.12417 32.3225 9.11515 32.0203 11.2514L31.969 11.6142C31.7962 12.8358 32.1968 14.0688 33.0547 14.9556L33.3094 15.2189C34.8096 16.7696 34.8096 19.2306 33.3094 20.7813L33.0547 21.0446C32.1968 21.9314 31.7962 23.1644 31.969 24.386L32.0203 24.7488C32.3225 26.8851 30.876 28.876 28.7508 29.2488L28.39 29.3121C27.1747 29.5253 26.1259 30.2873 25.5476 31.3772L25.3759 31.7009C24.3647 33.6068 22.0241 34.3672 20.0858 33.4197L19.7566 33.2588C18.6482 32.717 17.3517 32.717 16.2433 33.2588L15.9141 33.4197C13.9758 34.3673 11.6352 33.6068 10.624 31.7009L10.4523 31.3772C9.87401 30.2873 8.82516 29.5253 7.60993 29.3121L7.24905 29.2488C5.12395 28.876 3.67742 26.8851 3.97958 24.7488L4.03089 24.386C4.20369 23.1644 3.80306 21.9314 2.94521 21.0446L2.69046 20.7813C1.19033 19.2306 1.19033 16.7696 2.69047 15.2189L2.94521 14.9556C3.80306 14.0688 4.20368 12.8358 4.03089 11.6142L3.97958 11.2514C3.67742 9.11515 5.12395 7.12417 7.24905 6.7514L7.60993 6.6881C8.82516 6.47493 9.87401 5.71289 10.4523 4.62301L10.624 4.29936C11.6352 2.39345 13.9758 1.63297 15.9141 2.58049L16.2433 2.7414C17.3517 3.28324 18.6482 3.28324 19.7566 2.7414L20.0858 2.58049Z" fill="#702302"/>
<mask id="mask0_649_94" style="mask-type:alpha" maskUnits="userSpaceOnUse" x="8" y="7" width="21" height="21">
<rect x="8.37598" y="7.86414" width="20" height="20" fill="#D9D9D9"/>
</mask>
<g mask="url(#mask0_649_94)">
<path d="M13.7093 23.6975L12.5426 22.5308L17.2093 17.8642L12.5426 13.1975L13.7093 12.0308L18.3759 16.6975L23.0426 12.0308L24.2093 13.1975L19.5426 17.8642L24.2093 22.5308L23.0426 23.6975L18.3759 19.0308L13.7093 23.6975Z" fill="white"/>
</g>
</svg>
